<svg width="202" height="26" viewBox="0 0 202 26" fill="none" xmlns="http://www.w3.org/2000/svg">
  <path d="M12.6933 0.5L23.351 6.65327V18.9598L12.6933 25.1131L2.03548 18.9598V6.65327L12.6933 0.5Z" fill="#065E7C"/>
  <path d="M37.9497 20.5H34.953V8.32721C34.953 7.47987 35.1184 6.76686 35.449 6.18819C35.7866 5.60263 36.2585 5.16174 36.8647 4.86551C37.4778 4.5624 38.2046 4.41084 39.0451 4.41084C39.3206 4.41084 39.5858 4.43151 39.8407 4.47284C40.0956 4.50729 40.3436 4.55206 40.5847 4.60718L40.5537 6.84953C40.4229 6.81509 40.2851 6.79098 40.1404 6.7772C39.9957 6.76342 39.827 6.75653 39.6341 6.75653C39.2758 6.75653 38.9693 6.81853 38.7144 6.94253C38.4664 7.05964 38.2769 7.23531 38.1461 7.46954C38.0152 7.70376 37.9497 7.98965 37.9497 8.32721V20.5ZM40.1817 9.31922V11.4272H33.2893V9.31922H40.1817ZM41.2667 15.0233V14.8063C41.2667 13.9865 41.3839 13.2322 41.6181 12.5433C41.8523 11.8475 42.1933 11.2447 42.6411 10.7349C43.0889 10.2251 43.64 9.82901 44.2944 9.54656C44.9489 9.25722 45.6998 9.11255 46.5471 9.11255C47.3945 9.11255 48.1488 9.25722 48.8102 9.54656C49.4715 9.82901 50.0261 10.2251 50.4738 10.7349C50.9285 11.2447 51.273 11.8475 51.5072 12.5433C51.7414 13.2322 51.8585 13.9865 51.8585 14.8063V15.0233C51.8585 15.8362 51.7414 16.5905 51.5072 17.2863C51.273 17.9752 50.9285 18.578 50.4738 19.0947C50.0261 19.6044 49.4749 20.0006 48.8205 20.283C48.166 20.5654 47.4151 20.7067 46.5678 20.7067C45.7205 20.7067 44.9661 20.5654 44.3048 20.283C43.6503 20.0006 43.0958 19.6044 42.6411 19.0947C42.1933 18.578 41.8523 17.9752 41.6181 17.2863C41.3839 16.5905 41.2667 15.8362 41.2667 15.0233ZM44.2428 14.8063V15.0233C44.2428 15.4917 44.2841 15.9292 44.3668 16.3356C44.4494 16.7421 44.5803 17.1003 44.7594 17.4103C44.9455 17.7134 45.1866 17.9511 45.4828 18.1233C45.779 18.2955 46.1407 18.3816 46.5678 18.3816C46.9811 18.3816 47.3359 18.2955 47.6321 18.1233C47.9284 17.9511 48.166 17.7134 48.3452 17.4103C48.5243 17.1003 48.6552 16.7421 48.7378 16.3356C48.8274 15.9292 48.8722 15.4917 48.8722 15.0233V14.8063C48.8722 14.3516 48.8274 13.9245 48.7378 13.5249C48.6552 13.1185 48.5208 12.7603 48.3348 12.4503C48.1557 12.1334 47.918 11.8854 47.6218 11.7062C47.3256 11.5271 46.9674 11.4376 46.5471 11.4376C46.1269 11.4376 45.7687 11.5271 45.4725 11.7062C45.1831 11.8854 44.9455 12.1334 44.7594 12.4503C44.5803 12.7603 44.4494 13.1185 44.3668 13.5249C44.2841 13.9245 44.2428 14.3516 44.2428 14.8063ZM53.2122 15.0233V14.8063C53.2122 13.9865 53.3293 13.2322 53.5635 12.5433C53.7978 11.8475 54.1388 11.2447 54.5865 10.7349C55.0343 10.2251 55.5854 9.82901 56.2399 9.54656C56.8943 9.25722 57.6452 9.11255 58.4926 9.11255C59.3399 9.11255 60.0943 9.25722 60.7556 9.54656C61.4169 9.82901 61.9715 10.2251 62.4193 10.7349C62.874 11.2447 63.2184 11.8475 63.4526 12.5433C63.6869 13.2322 63.804 13.9865 63.804 14.8063V15.0233C63.804 15.8362 63.6869 16.5905 63.4526 17.2863C63.2184 17.9752 62.874 18.578 62.4193 19.0947C61.9715 19.6044 61.4204 20.0006 60.7659 20.283C60.1115 20.5654 59.3606 20.7067 58.5133 20.7067C57.6659 20.7067 56.9116 20.5654 56.2502 20.283C55.5958 20.0006 55.0412 19.6044 54.5865 19.0947C54.1388 18.578 53.7978 17.9752 53.5635 17.2863C53.3293 16.5905 53.2122 15.8362 53.2122 15.0233ZM56.1882 14.8063V15.0233C56.1882 15.4917 56.2296 15.9292 56.3122 16.3356C56.3949 16.7421 56.5258 17.1003 56.7049 17.4103C56.8909 17.7134 57.132 17.9511 57.4282 18.1233C57.7245 18.2955 58.0861 18.3816 58.5133 18.3816C58.9266 18.3816 59.2814 18.2955 59.5776 18.1233C59.8738 17.9511 60.1115 17.7134 60.2906 17.4103C60.4697 17.1003 60.6006 16.7421 60.6833 16.3356C60.7728 15.9292 60.8176 15.4917 60.8176 15.0233V14.8063C60.8176 14.3516 60.7728 13.9245 60.6833 13.5249C60.6006 13.1185 60.4663 12.7603 60.2803 12.4503C60.1012 12.1334 59.8635 11.8854 59.5673 11.7062C59.271 11.5271 58.9128 11.4376 58.4926 11.4376C58.0724 11.4376 57.7141 11.5271 57.4179 11.7062C57.1286 11.8854 56.8909 12.1334 56.7049 12.4503C56.5258 12.7603 56.3949 13.1185 56.3122 13.5249C56.2296 13.9245 56.1882 14.3516 56.1882 14.8063ZM72.2361 18.0613V4.62784H75.2328V20.5H72.5357L72.2361 18.0613ZM65.168 15.0439V14.8269C65.168 13.9727 65.2644 13.1977 65.4573 12.5019C65.6502 11.7992 65.9327 11.1965 66.3047 10.6936C66.6767 10.1907 67.1348 9.80145 67.679 9.52589C68.2232 9.25033 68.8432 9.11255 69.539 9.11255C70.1935 9.11255 70.7653 9.25033 71.2544 9.52589C71.7504 9.80145 72.1706 10.1941 72.5151 10.7039C72.8664 11.2068 73.1488 11.8027 73.3624 12.4916C73.576 13.1736 73.731 13.921 73.8274 14.7339V15.2093C73.731 15.9877 73.576 16.7111 73.3624 17.3793C73.1488 18.0475 72.8664 18.6331 72.5151 19.136C72.1706 19.632 71.7504 20.0178 71.2544 20.2933C70.7584 20.5689 70.1797 20.7067 69.5184 20.7067C68.8226 20.7067 68.2026 20.5654 67.6583 20.283C67.121 20.0006 66.6663 19.6044 66.2943 19.0947C65.9292 18.5849 65.6502 17.9855 65.4573 17.2966C65.2644 16.6077 65.168 15.8568 65.168 15.0439ZM68.144 14.8269V15.0439C68.144 15.5055 68.1785 15.9361 68.2473 16.3356C68.3231 16.7352 68.4437 17.09 68.609 17.4C68.7812 17.7031 69.0017 17.9408 69.2704 18.113C69.5459 18.2783 69.88 18.361 70.2727 18.361C70.7825 18.361 71.2027 18.2473 71.5334 18.02C71.8641 17.7858 72.1155 17.4654 72.2877 17.059C72.4668 16.6525 72.5702 16.1841 72.5977 15.6536V14.2999C72.5771 13.8659 72.5151 13.4767 72.4117 13.1323C72.3153 12.7809 72.1706 12.4813 71.9777 12.2333C71.7917 11.9852 71.5575 11.7924 71.275 11.6546C70.9995 11.5168 70.6723 11.4479 70.2934 11.4479C69.9076 11.4479 69.5769 11.5375 69.3014 11.7166C69.0258 11.8888 68.8019 12.1265 68.6297 12.4296C68.4644 12.7327 68.3403 13.0909 68.2577 13.5043C68.1819 13.9107 68.144 14.3516 68.144 14.8269ZM87.9739 20.7067C87.1059 20.7067 86.3274 20.5689 85.6385 20.2933C84.9496 20.0109 84.3641 19.6217 83.8818 19.1257C83.4065 18.6296 83.0414 18.0544 82.7865 17.4C82.5316 16.7386 82.4042 16.036 82.4042 15.2919V14.8786C82.4042 14.0313 82.5247 13.2563 82.7658 12.5536C83.0069 11.8509 83.3514 11.2412 83.7992 10.7246C84.2538 10.2079 84.805 9.81178 85.4525 9.53622C86.1001 9.25378 86.8303 9.11255 87.6432 9.11255C88.4354 9.11255 89.1381 9.24344 89.7512 9.50522C90.3643 9.767 90.8776 10.139 91.2909 10.6212C91.7111 11.1035 92.028 11.6821 92.2416 12.3573C92.4551 13.0255 92.5619 13.7695 92.5619 14.5893V15.8293H83.6752V13.8453H89.6376V13.6179C89.6376 13.2046 89.5618 12.836 89.4102 12.5123C89.2656 12.1816 89.0451 11.9198 88.7489 11.7269C88.4527 11.534 88.0738 11.4376 87.6122 11.4376C87.2195 11.4376 86.882 11.5237 86.5995 11.6959C86.3171 11.8681 86.0863 12.1093 85.9072 12.4193C85.735 12.7293 85.6041 13.0944 85.5145 13.5146C85.4319 13.9279 85.3905 14.3826 85.3905 14.8786V15.2919C85.3905 15.7397 85.4525 16.1531 85.5765 16.532C85.7074 16.9109 85.89 17.2381 86.1242 17.5136C86.3653 17.7892 86.6546 18.0028 86.9922 18.1543C87.3366 18.3059 87.7259 18.3816 88.1599 18.3816C88.6972 18.3816 89.1967 18.2783 89.6582 18.0716C90.1267 17.8581 90.5297 17.5377 90.8672 17.1106L92.3139 18.6813C92.0797 19.0189 91.7594 19.3427 91.3529 19.6527C90.9534 19.9627 90.4711 20.2176 89.9062 20.4173C89.3413 20.6102 88.6972 20.7067 87.9739 20.7067ZM96.654 9.31922L98.5036 12.7189L100.405 9.31922H103.577L100.415 14.7856L103.722 20.5H100.539L98.5243 16.904L96.5093 20.5H93.3266L96.6333 14.7856L93.4713 9.31922H96.654ZM108 11.4686V24.7987H105.024V9.31922H107.783L108 11.4686ZM115.078 14.7856V15.0026C115.078 15.8155 114.982 16.5698 114.789 17.2656C114.603 17.9614 114.328 18.5676 113.962 19.0843C113.597 19.5941 113.143 19.9937 112.598 20.283C112.061 20.5654 111.441 20.7067 110.738 20.7067C110.056 20.7067 109.464 20.5689 108.961 20.2933C108.458 20.0178 108.035 19.632 107.69 19.136C107.353 18.6331 107.08 18.051 106.874 17.3896C106.667 16.7283 106.509 16.0187 106.398 15.2609V14.6926C106.509 13.8797 106.667 13.1357 106.874 12.4606C107.08 11.7786 107.353 11.1896 107.69 10.6936C108.035 10.1907 108.455 9.80145 108.951 9.52589C109.454 9.25033 110.043 9.11255 110.718 9.11255C111.427 9.11255 112.051 9.24689 112.588 9.51556C113.132 9.78423 113.587 10.17 113.952 10.6729C114.324 11.1758 114.603 11.7751 114.789 12.4709C114.982 13.1667 115.078 13.9383 115.078 14.7856ZM112.092 15.0026V14.7856C112.092 14.3103 112.051 13.8728 111.968 13.4733C111.892 13.0668 111.768 12.712 111.596 12.4089C111.431 12.1058 111.21 11.8716 110.935 11.7062C110.666 11.534 110.339 11.4479 109.953 11.4479C109.547 11.4479 109.199 11.5134 108.909 11.6442C108.627 11.7751 108.396 11.9646 108.217 12.2126C108.038 12.4606 107.904 12.7568 107.814 13.1013C107.725 13.4457 107.669 13.8349 107.649 14.2689V15.7053C107.683 16.2151 107.78 16.6732 107.938 17.0796C108.097 17.4792 108.341 17.7961 108.672 18.0303C109.002 18.2645 109.436 18.3816 109.974 18.3816C110.366 18.3816 110.697 18.2955 110.966 18.1233C111.234 17.9442 111.451 17.6996 111.617 17.3896C111.789 17.0796 111.91 16.7214 111.978 16.315C112.054 15.9085 112.092 15.4711 112.092 15.0026ZM120.07 4.62784V20.5H117.083V4.62784H120.07ZM122.054 15.0233V14.8063C122.054 13.9865 122.171 13.2322 122.405 12.5433C122.639 11.8475 122.98 11.2447 123.428 10.7349C123.876 10.2251 124.427 9.82901 125.081 9.54656C125.736 9.25722 126.487 9.11255 127.334 9.11255C128.181 9.11255 128.936 9.25722 129.597 9.54656C130.258 9.82901 130.813 10.2251 131.261 10.7349C131.715 11.2447 132.06 11.8475 132.294 12.5433C132.528 13.2322 132.645 13.9865 132.645 14.8063V15.0233C132.645 15.8362 132.528 16.5905 132.294 17.2863C132.06 17.9752 131.715 18.578 131.261 19.0947C130.813 19.6044 130.262 20.0006 129.607 20.283C128.953 20.5654 128.202 20.7067 127.355 20.7067C126.507 20.7067 125.753 20.5654 125.092 20.283C124.437 20.0006 123.883 19.6044 123.428 19.0947C122.98 18.578 122.639 17.9752 122.405 17.2863C122.171 16.5905 122.054 15.8362 122.054 15.0233ZM125.03 14.8063V15.0233C125.03 15.4917 125.071 15.9292 125.154 16.3356C125.236 16.7421 125.367 17.1003 125.546 17.4103C125.732 17.7134 125.973 17.9511 126.27 18.1233C126.566 18.2955 126.927 18.3816 127.355 18.3816C127.768 18.3816 128.123 18.2955 128.419 18.1233C128.715 17.9511 128.953 17.7134 129.132 17.4103C129.311 17.1003 129.442 16.7421 129.525 16.3356C129.614 15.9292 129.659 15.4917 129.659 15.0233V14.8063C129.659 14.3516 129.614 13.9245 129.525 13.5249C129.442 13.1185 129.308 12.7603 129.122 12.4503C128.943 12.1334 128.705 11.8854 128.409 11.7062C128.112 11.5271 127.754 11.4376 127.334 11.4376C126.914 11.4376 126.555 11.5271 126.259 11.7062C125.97 11.8854 125.732 12.1334 125.546 12.4503C125.367 12.7603 125.236 13.1185 125.154 13.5249C125.071 13.9245 125.03 14.3516 125.03 14.8063ZM137.45 11.7579V20.5H134.474V9.31922H137.275L137.45 11.7579ZM140.819 9.24689L140.767 12.0059C140.623 11.9852 140.447 11.968 140.24 11.9542C140.041 11.9336 139.858 11.9232 139.693 11.9232C139.272 11.9232 138.907 11.9784 138.597 12.0886C138.294 12.1919 138.039 12.3469 137.833 12.5536C137.633 12.7603 137.481 13.0117 137.378 13.3079C137.282 13.6042 137.226 13.9417 137.213 14.3206L136.613 14.1346C136.613 13.4113 136.686 12.7465 136.83 12.1403C136.975 11.5271 137.185 10.9932 137.461 10.5386C137.743 10.0839 138.088 9.73256 138.494 9.48456C138.9 9.23656 139.365 9.11255 139.889 9.11255C140.054 9.11255 140.223 9.12633 140.395 9.15389C140.568 9.17455 140.709 9.20555 140.819 9.24689ZM147.164 20.7067C146.296 20.7067 145.517 20.5689 144.828 20.2933C144.14 20.0109 143.554 19.6217 143.072 19.1257C142.596 18.6296 142.231 18.0544 141.976 17.4C141.722 16.7386 141.594 16.036 141.594 15.2919V14.8786C141.594 14.0313 141.715 13.2563 141.956 12.5536C142.197 11.8509 142.541 11.2412 142.989 10.7246C143.444 10.2079 143.995 9.81178 144.642 9.53622C145.29 9.25378 146.02 9.11255 146.833 9.11255C147.625 9.11255 148.328 9.24344 148.941 9.50522C149.554 9.767 150.067 10.139 150.481 10.6212C150.901 11.1035 151.218 11.6821 151.432 12.3573C151.645 13.0255 151.752 13.7695 151.752 14.5893V15.8293H142.865V13.8453H148.827V13.6179C148.827 13.2046 148.752 12.836 148.6 12.5123C148.455 12.1816 148.235 11.9198 147.939 11.7269C147.643 11.534 147.264 11.4376 146.802 11.4376C146.409 11.4376 146.072 11.5237 145.789 11.6959C145.507 11.8681 145.276 12.1093 145.097 12.4193C144.925 12.7293 144.794 13.0944 144.704 13.5146C144.622 13.9279 144.58 14.3826 144.58 14.8786V15.2919C144.58 15.7397 144.642 16.1531 144.766 16.532C144.897 16.9109 145.08 17.2381 145.314 17.5136C145.555 17.7892 145.845 18.0028 146.182 18.1543C146.527 18.3059 146.916 18.3816 147.35 18.3816C147.887 18.3816 148.387 18.2783 148.848 18.0716C149.317 17.8581 149.72 17.5377 150.057 17.1106L151.504 18.6813C151.27 19.0189 150.949 19.3427 150.543 19.6527C150.143 19.9627 149.661 20.2176 149.096 20.4173C148.531 20.6102 147.887 20.7067 147.164 20.7067ZM156.423 11.7579V20.5H153.447V9.31922H156.247L156.423 11.7579ZM159.791 9.24689L159.74 12.0059C159.595 11.9852 159.419 11.968 159.213 11.9542C159.013 11.9336 158.83 11.9232 158.665 11.9232C158.245 11.9232 157.88 11.9784 157.57 12.0886C157.266 12.1919 157.012 12.3469 156.805 12.5536C156.605 12.7603 156.454 13.0117 156.35 13.3079C156.254 13.6042 156.199 13.9417 156.185 14.3206L155.586 14.1346C155.586 13.4113 155.658 12.7465 155.803 12.1403C155.947 11.5271 156.157 10.9932 156.433 10.5386C156.715 10.0839 157.06 9.73256 157.466 9.48456C157.873 9.23656 158.338 9.11255 158.861 9.11255C159.027 9.11255 159.195 9.12633 159.368 9.15389C159.54 9.17455 159.681 9.20555 159.791 9.24689Z" fill="white"/>
  <path d="M173.564 16.416V13.1523C173.564 12.9023 173.514 12.6855 173.412 12.502C173.314 12.3145 173.166 12.1699 172.967 12.0684C172.768 11.9668 172.521 11.916 172.229 11.916C171.955 11.916 171.715 11.9629 171.508 12.0566C171.305 12.1504 171.145 12.2734 171.027 12.4258C170.914 12.5781 170.857 12.7422 170.857 12.918H169.773C169.773 12.6914 169.832 12.4668 169.949 12.2441C170.066 12.0215 170.234 11.8203 170.453 11.6406C170.676 11.457 170.941 11.3125 171.25 11.207C171.562 11.0977 171.91 11.043 172.293 11.043C172.754 11.043 173.16 11.1211 173.512 11.2773C173.867 11.4336 174.145 11.6699 174.344 11.9863C174.547 12.2988 174.648 12.6914 174.648 13.1641V16.1172C174.648 16.3281 174.666 16.5527 174.701 16.791C174.74 17.0293 174.797 17.2344 174.871 17.4062V17.5H173.74C173.686 17.375 173.643 17.209 173.611 17.002C173.58 16.791 173.564 16.5957 173.564 16.416ZM173.752 13.6562L173.764 14.418H172.668C172.359 14.418 172.084 14.4434 171.842 14.4941C171.6 14.541 171.396 14.6133 171.232 14.7109C171.068 14.8086 170.943 14.9316 170.857 15.0801C170.771 15.2246 170.729 15.3945 170.729 15.5898C170.729 15.7891 170.773 15.9707 170.863 16.1348C170.953 16.2988 171.088 16.4297 171.268 16.5273C171.451 16.6211 171.676 16.668 171.941 16.668C172.273 16.668 172.566 16.5977 172.82 16.457C173.074 16.3164 173.275 16.1445 173.424 15.9414C173.576 15.7383 173.658 15.541 173.67 15.3496L174.133 15.8711C174.105 16.0352 174.031 16.2168 173.91 16.416C173.789 16.6152 173.627 16.8066 173.424 16.9902C173.225 17.1699 172.986 17.3203 172.709 17.4414C172.436 17.5586 172.127 17.6172 171.783 17.6172C171.354 17.6172 170.977 17.5332 170.652 17.3652C170.332 17.1973 170.082 16.9727 169.902 16.6914C169.727 16.4062 169.639 16.0879 169.639 15.7363C169.639 15.3965 169.705 15.0977 169.838 14.8398C169.971 14.5781 170.162 14.3613 170.412 14.1895C170.662 14.0137 170.963 13.8809 171.314 13.791C171.666 13.7012 172.059 13.6562 172.492 13.6562H173.752ZM180.35 16.2695V8.5H181.439V17.5H180.443L180.35 16.2695ZM176.084 14.4004V14.2773C176.084 13.793 176.143 13.3535 176.26 12.959C176.381 12.5605 176.551 12.2188 176.77 11.9336C176.992 11.6484 177.256 11.4297 177.561 11.2773C177.869 11.1211 178.213 11.043 178.592 11.043C178.99 11.043 179.338 11.1133 179.635 11.2539C179.936 11.3906 180.189 11.5918 180.396 11.8574C180.607 12.1191 180.773 12.4355 180.895 12.8066C181.016 13.1777 181.1 13.5977 181.146 14.0664V14.6055C181.104 15.0703 181.02 15.4883 180.895 15.8594C180.773 16.2305 180.607 16.5469 180.396 16.8086C180.189 17.0703 179.936 17.2715 179.635 17.4121C179.334 17.5488 178.982 17.6172 178.58 17.6172C178.209 17.6172 177.869 17.5371 177.561 17.377C177.256 17.2168 176.992 16.9922 176.77 16.7031C176.551 16.4141 176.381 16.0742 176.26 15.6836C176.143 15.2891 176.084 14.8613 176.084 14.4004ZM177.174 14.2773V14.4004C177.174 14.7168 177.205 15.0137 177.268 15.291C177.334 15.5684 177.436 15.8125 177.572 16.0234C177.709 16.2344 177.883 16.4004 178.094 16.5215C178.305 16.6387 178.557 16.6973 178.85 16.6973C179.209 16.6973 179.504 16.6211 179.734 16.4688C179.969 16.3164 180.156 16.1152 180.297 15.8652C180.438 15.6152 180.547 15.3438 180.625 15.0508V13.6387C180.578 13.4238 180.51 13.2168 180.42 13.0176C180.334 12.8145 180.221 12.6348 180.08 12.4785C179.943 12.3184 179.773 12.1914 179.57 12.0977C179.371 12.0039 179.135 11.957 178.861 11.957C178.564 11.957 178.309 12.0195 178.094 12.1445C177.883 12.2656 177.709 12.4336 177.572 12.6484C177.436 12.8594 177.334 13.1055 177.268 13.3867C177.205 13.6641 177.174 13.9609 177.174 14.2773ZM184.205 12.4199V17.5H183.115V11.1602H184.146L184.205 12.4199ZM183.982 14.0898L183.479 14.0723C183.482 13.6387 183.539 13.2383 183.648 12.8711C183.758 12.5 183.92 12.1777 184.135 11.9043C184.35 11.6309 184.617 11.4199 184.938 11.2715C185.258 11.1191 185.629 11.043 186.051 11.043C186.348 11.043 186.621 11.0859 186.871 11.1719C187.121 11.2539 187.338 11.3848 187.521 11.5645C187.705 11.7441 187.848 11.9746 187.949 12.2559C188.051 12.5371 188.102 12.877 188.102 13.2754V17.5H187.018V13.3281C187.018 12.9961 186.961 12.7305 186.848 12.5312C186.738 12.332 186.582 12.1875 186.379 12.0977C186.176 12.0039 185.938 11.957 185.664 11.957C185.344 11.957 185.076 12.0137 184.861 12.127C184.646 12.2402 184.475 12.3965 184.346 12.5957C184.217 12.7949 184.123 13.0234 184.064 13.2812C184.01 13.5352 183.982 13.8047 183.982 14.0898ZM188.09 13.4922L187.363 13.7148C187.367 13.3672 187.424 13.0332 187.533 12.7129C187.646 12.3926 187.809 12.1074 188.02 11.8574C188.234 11.6074 188.498 11.4102 188.811 11.2656C189.123 11.1172 189.48 11.043 189.883 11.043C190.223 11.043 190.523 11.0879 190.785 11.1777C191.051 11.2676 191.273 11.4062 191.453 11.5938C191.637 11.7773 191.775 12.0137 191.869 12.3027C191.963 12.5918 192.01 12.9355 192.01 13.334V17.5H190.92V13.3223C190.92 12.9668 190.863 12.6914 190.75 12.4961C190.641 12.2969 190.484 12.1582 190.281 12.0801C190.082 11.998 189.844 11.957 189.566 11.957C189.328 11.957 189.117 11.998 188.934 12.0801C188.75 12.1621 188.596 12.2754 188.471 12.4199C188.346 12.5605 188.25 12.7227 188.184 12.9062C188.121 13.0898 188.09 13.2852 188.09 13.4922ZM194.828 11.1602V17.5H193.738V11.1602H194.828ZM193.656 9.47852C193.656 9.30273 193.709 9.1543 193.814 9.0332C193.924 8.91211 194.084 8.85156 194.295 8.85156C194.502 8.85156 194.66 8.91211 194.77 9.0332C194.883 9.1543 194.939 9.30273 194.939 9.47852C194.939 9.64648 194.883 9.79102 194.77 9.91211C194.66 10.0293 194.502 10.0879 194.295 10.0879C194.084 10.0879 193.924 10.0293 193.814 9.91211C193.709 9.79102 193.656 9.64648 193.656 9.47852ZM197.652 12.5137V17.5H196.568V11.1602H197.594L197.652 12.5137ZM197.395 14.0898L196.943 14.0723C196.947 13.6387 197.012 13.2383 197.137 12.8711C197.262 12.5 197.438 12.1777 197.664 11.9043C197.891 11.6309 198.16 11.4199 198.473 11.2715C198.789 11.1191 199.139 11.043 199.521 11.043C199.834 11.043 200.115 11.0859 200.365 11.1719C200.615 11.2539 200.828 11.3867 201.004 11.5703C201.184 11.7539 201.32 11.9922 201.414 12.2852C201.508 12.5742 201.555 12.9277 201.555 13.3457V17.5H200.465V13.334C200.465 13.002 200.416 12.7363 200.318 12.5371C200.221 12.334 200.078 12.1875 199.891 12.0977C199.703 12.0039 199.473 11.957 199.199 11.957C198.93 11.957 198.684 12.0137 198.461 12.127C198.242 12.2402 198.053 12.3965 197.893 12.5957C197.736 12.7949 197.613 13.0234 197.523 13.2812C197.438 13.5352 197.395 13.8047 197.395 14.0898Z" fill="#82F3FF"/>
</svg>
