<svg width="198" height="30" viewBox="0 0 198 30" fill="none" xmlns="http://www.w3.org/2000/svg">
  <path d="M46.1523 22H42.7539V8.19531C42.7539 7.23438 42.9414 6.42578 43.3164 5.76953C43.6992 5.10547 44.2344 4.60547 44.9219 4.26953C45.6172 3.92578 46.4414 3.75391 47.3945 3.75391C47.707 3.75391 48.0078 3.77734 48.2969 3.82422C48.5859 3.86328 48.8672 3.91406 49.1406 3.97656L49.1055 6.51953C48.957 6.48047 48.8008 6.45312 48.6367 6.4375C48.4727 6.42188 48.2812 6.41406 48.0625 6.41406C47.6562 6.41406 47.3086 6.48438 47.0195 6.625C46.7383 6.75781 46.5234 6.95703 46.375 7.22266C46.2266 7.48828 46.1523 7.8125 46.1523 8.19531V22ZM48.6836 9.32031V11.7109H40.8672V9.32031H48.6836ZM49.9141 15.7891V15.543C49.9141 14.6133 50.0469 13.7578 50.3125 12.9766C50.5781 12.1875 50.9648 11.5039 51.4727 10.9258C51.9805 10.3477 52.6055 9.89844 53.3477 9.57812C54.0898 9.25 54.9414 9.08594 55.9023 9.08594C56.8633 9.08594 57.7188 9.25 58.4688 9.57812C59.2188 9.89844 59.8477 10.3477 60.3555 10.9258C60.8711 11.5039 61.2617 12.1875 61.5273 12.9766C61.793 13.7578 61.9258 14.6133 61.9258 15.543V15.7891C61.9258 16.7109 61.793 17.5664 61.5273 18.3555C61.2617 19.1367 60.8711 19.8203 60.3555 20.4062C59.8477 20.9844 59.2227 21.4336 58.4805 21.7539C57.7383 22.0742 56.8867 22.2344 55.9258 22.2344C54.9648 22.2344 54.1094 22.0742 53.3594 21.7539C52.6172 21.4336 51.9883 20.9844 51.4727 20.4062C50.9648 19.8203 50.5781 19.1367 50.3125 18.3555C50.0469 17.5664 49.9141 16.7109 49.9141 15.7891ZM53.2891 15.543V15.7891C53.2891 16.3203 53.3359 16.8164 53.4297 17.2773C53.5234 17.7383 53.6719 18.1445 53.875 18.4961C54.0859 18.8398 54.3594 19.1094 54.6953 19.3047C55.0312 19.5 55.4414 19.5977 55.9258 19.5977C56.3945 19.5977 56.7969 19.5 57.1328 19.3047C57.4688 19.1094 57.7383 18.8398 57.9414 18.4961C58.1445 18.1445 58.293 17.7383 58.3867 17.2773C58.4883 16.8164 58.5391 16.3203 58.5391 15.7891V15.543C58.5391 15.0273 58.4883 14.543 58.3867 14.0898C58.293 13.6289 58.1406 13.2227 57.9297 12.8711C57.7266 12.5117 57.457 12.2305 57.1211 12.0273C56.7852 11.8242 56.3789 11.7227 55.9023 11.7227C55.4258 11.7227 55.0195 11.8242 54.6836 12.0273C54.3555 12.2305 54.0859 12.5117 53.875 12.8711C53.6719 13.2227 53.5234 13.6289 53.4297 14.0898C53.3359 14.543 53.2891 15.0273 53.2891 15.543ZM63.4609 15.7891V15.543C63.4609 14.6133 63.5938 13.7578 63.8594 12.9766C64.125 12.1875 64.5117 11.5039 65.0195 10.9258C65.5273 10.3477 66.1523 9.89844 66.8945 9.57812C67.6367 9.25 68.4883 9.08594 69.4492 9.08594C70.4102 9.08594 71.2656 9.25 72.0156 9.57812C72.7656 9.89844 73.3945 10.3477 73.9023 10.9258C74.418 11.5039 74.8086 12.1875 75.0742 12.9766C75.3398 13.7578 75.4727 14.6133 75.4727 15.543V15.7891C75.4727 16.7109 75.3398 17.5664 75.0742 18.3555C74.8086 19.1367 74.418 19.8203 73.9023 20.4062C73.3945 20.9844 72.7695 21.4336 72.0273 21.7539C71.2852 22.0742 70.4336 22.2344 69.4727 22.2344C68.5117 22.2344 67.6562 22.0742 66.9062 21.7539C66.1641 21.4336 65.5352 20.9844 65.0195 20.4062C64.5117 19.8203 64.125 19.1367 63.8594 18.3555C63.5938 17.5664 63.4609 16.7109 63.4609 15.7891ZM66.8359 15.543V15.7891C66.8359 16.3203 66.8828 16.8164 66.9766 17.2773C67.0703 17.7383 67.2188 18.1445 67.4219 18.4961C67.6328 18.8398 67.9062 19.1094 68.2422 19.3047C68.5781 19.5 68.9883 19.5977 69.4727 19.5977C69.9414 19.5977 70.3438 19.5 70.6797 19.3047C71.0156 19.1094 71.2852 18.8398 71.4883 18.4961C71.6914 18.1445 71.8398 17.7383 71.9336 17.2773C72.0352 16.8164 72.0859 16.3203 72.0859 15.7891V15.543C72.0859 15.0273 72.0352 14.543 71.9336 14.0898C71.8398 13.6289 71.6875 13.2227 71.4766 12.8711C71.2734 12.5117 71.0039 12.2305 70.668 12.0273C70.332 11.8242 69.9258 11.7227 69.4492 11.7227C68.9727 11.7227 68.5664 11.8242 68.2305 12.0273C67.9023 12.2305 67.6328 12.5117 67.4219 12.8711C67.2188 13.2227 67.0703 13.6289 66.9766 14.0898C66.8828 14.543 66.8359 15.0273 66.8359 15.543ZM85.0352 19.2344V4H88.4336V22H85.375L85.0352 19.2344ZM77.0195 15.8125V15.5664C77.0195 14.5977 77.1289 13.7188 77.3477 12.9297C77.5664 12.1328 77.8867 11.4492 78.3086 10.8789C78.7305 10.3086 79.25 9.86719 79.8672 9.55469C80.4844 9.24219 81.1875 9.08594 81.9766 9.08594C82.7188 9.08594 83.3672 9.24219 83.9219 9.55469C84.4844 9.86719 84.9609 10.3125 85.3516 10.8906C85.75 11.4609 86.0703 12.1367 86.3125 12.918C86.5547 13.6914 86.7305 14.5391 86.8398 15.4609V16C86.7305 16.8828 86.5547 17.7031 86.3125 18.4609C86.0703 19.2188 85.75 19.8828 85.3516 20.4531C84.9609 21.0156 84.4844 21.4531 83.9219 21.7656C83.3594 22.0781 82.7031 22.2344 81.9531 22.2344C81.1641 22.2344 80.4609 22.0742 79.8438 21.7539C79.2344 21.4336 78.7188 20.9844 78.2969 20.4062C77.8828 19.8281 77.5664 19.1484 77.3477 18.3672C77.1289 17.5859 77.0195 16.7344 77.0195 15.8125ZM80.3945 15.5664V15.8125C80.3945 16.3359 80.4336 16.8242 80.5117 17.2773C80.5977 17.7305 80.7344 18.1328 80.9219 18.4844C81.1172 18.8281 81.3672 19.0977 81.6719 19.293C81.9844 19.4805 82.3633 19.5742 82.8086 19.5742C83.3867 19.5742 83.8633 19.4453 84.2383 19.1875C84.6133 18.9219 84.8984 18.5586 85.0938 18.0977C85.2969 17.6367 85.4141 17.1055 85.4453 16.5039V14.9688C85.4219 14.4766 85.3516 14.0352 85.2344 13.6445C85.125 13.2461 84.9609 12.9062 84.7422 12.625C84.5312 12.3438 84.2656 12.125 83.9453 11.9688C83.6328 11.8125 83.2617 11.7344 82.832 11.7344C82.3945 11.7344 82.0195 11.8359 81.707 12.0391C81.3945 12.2344 81.1406 12.5039 80.9453 12.8477C80.7578 13.1914 80.6172 13.5977 80.5234 14.0664C80.4375 14.5273 80.3945 15.0273 80.3945 15.5664ZM102.883 22.2344C101.898 22.2344 101.016 22.0781 100.234 21.7656C99.4531 21.4453 98.7891 21.0039 98.2422 20.4414C97.7031 19.8789 97.2891 19.2266 97 18.4844C96.7109 17.7344 96.5664 16.9375 96.5664 16.0938V15.625C96.5664 14.6641 96.7031 13.7852 96.9766 12.9883C97.25 12.1914 97.6406 11.5 98.1484 10.9141C98.6641 10.3281 99.2891 9.87891 100.023 9.56641C100.758 9.24609 101.586 9.08594 102.508 9.08594C103.406 9.08594 104.203 9.23438 104.898 9.53125C105.594 9.82812 106.176 10.25 106.645 10.7969C107.121 11.3438 107.48 12 107.723 12.7656C107.965 13.5234 108.086 14.3672 108.086 15.2969V16.7031H98.0078V14.4531H104.77V14.1953C104.77 13.7266 104.684 13.3086 104.512 12.9414C104.348 12.5664 104.098 12.2695 103.762 12.0508C103.426 11.832 102.996 11.7227 102.473 11.7227C102.027 11.7227 101.645 11.8203 101.324 12.0156C101.004 12.2109 100.742 12.4844 100.539 12.8359C100.344 13.1875 100.195 13.6016 100.094 14.0781C100 14.5469 99.9531 15.0625 99.9531 15.625V16.0938C99.9531 16.6016 100.023 17.0703 100.164 17.5C100.312 17.9297 100.52 18.3008 100.785 18.6133C101.059 18.9258 101.387 19.168 101.77 19.3398C102.16 19.5117 102.602 19.5977 103.094 19.5977C103.703 19.5977 104.27 19.4805 104.793 19.2461C105.324 19.0039 105.781 18.6406 106.164 18.1562L107.805 19.9375C107.539 20.3203 107.176 20.6875 106.715 21.0391C106.262 21.3906 105.715 21.6797 105.074 21.9062C104.434 22.125 103.703 22.2344 102.883 22.2344ZM112.727 9.32031L114.824 13.1758L116.98 9.32031H120.578L116.992 15.5195L120.742 22H117.133L114.848 17.9219L112.562 22H108.953L112.703 15.5195L109.117 9.32031H112.727ZM125.594 11.7578V26.875H122.219V9.32031H125.348L125.594 11.7578ZM133.621 15.5195V15.7656C133.621 16.6875 133.512 17.543 133.293 18.332C133.082 19.1211 132.77 19.8086 132.355 20.3945C131.941 20.9727 131.426 21.4258 130.809 21.7539C130.199 22.0742 129.496 22.2344 128.699 22.2344C127.926 22.2344 127.254 22.0781 126.684 21.7656C126.113 21.4531 125.633 21.0156 125.242 20.4531C124.859 19.8828 124.551 19.2227 124.316 18.4727C124.082 17.7227 123.902 16.918 123.777 16.0586V15.4141C123.902 14.4922 124.082 13.6484 124.316 12.8828C124.551 12.1094 124.859 11.4414 125.242 10.8789C125.633 10.3086 126.109 9.86719 126.672 9.55469C127.242 9.24219 127.91 9.08594 128.676 9.08594C129.48 9.08594 130.188 9.23828 130.797 9.54297C131.414 9.84766 131.93 10.2852 132.344 10.8555C132.766 11.4258 133.082 12.1055 133.293 12.8945C133.512 13.6836 133.621 14.5586 133.621 15.5195ZM130.234 15.7656V15.5195C130.234 14.9805 130.188 14.4844 130.094 14.0312C130.008 13.5703 129.867 13.168 129.672 12.8242C129.484 12.4805 129.234 12.2148 128.922 12.0273C128.617 11.832 128.246 11.7344 127.809 11.7344C127.348 11.7344 126.953 11.8086 126.625 11.957C126.305 12.1055 126.043 12.3203 125.84 12.6016C125.637 12.8828 125.484 13.2188 125.383 13.6094C125.281 14 125.219 14.4414 125.195 14.9336V16.5625C125.234 17.1406 125.344 17.6602 125.523 18.1211C125.703 18.5742 125.98 18.9336 126.355 19.1992C126.73 19.4648 127.223 19.5977 127.832 19.5977C128.277 19.5977 128.652 19.5 128.957 19.3047C129.262 19.1016 129.508 18.8242 129.695 18.4727C129.891 18.1211 130.027 17.7148 130.105 17.2539C130.191 16.793 130.234 16.2969 130.234 15.7656ZM139.281 4V22H135.895V4H139.281ZM141.531 15.7891V15.543C141.531 14.6133 141.664 13.7578 141.93 12.9766C142.195 12.1875 142.582 11.5039 143.09 10.9258C143.598 10.3477 144.223 9.89844 144.965 9.57812C145.707 9.25 146.559 9.08594 147.52 9.08594C148.48 9.08594 149.336 9.25 150.086 9.57812C150.836 9.89844 151.465 10.3477 151.973 10.9258C152.488 11.5039 152.879 12.1875 153.145 12.9766C153.41 13.7578 153.543 14.6133 153.543 15.543V15.7891C153.543 16.7109 153.41 17.5664 153.145 18.3555C152.879 19.1367 152.488 19.8203 151.973 20.4062C151.465 20.9844 150.84 21.4336 150.098 21.7539C149.355 22.0742 148.504 22.2344 147.543 22.2344C146.582 22.2344 145.727 22.0742 144.977 21.7539C144.234 21.4336 143.605 20.9844 143.09 20.4062C142.582 19.8203 142.195 19.1367 141.93 18.3555C141.664 17.5664 141.531 16.7109 141.531 15.7891ZM144.906 15.543V15.7891C144.906 16.3203 144.953 16.8164 145.047 17.2773C145.141 17.7383 145.289 18.1445 145.492 18.4961C145.703 18.8398 145.977 19.1094 146.312 19.3047C146.648 19.5 147.059 19.5977 147.543 19.5977C148.012 19.5977 148.414 19.5 148.75 19.3047C149.086 19.1094 149.355 18.8398 149.559 18.4961C149.762 18.1445 149.91 17.7383 150.004 17.2773C150.105 16.8164 150.156 16.3203 150.156 15.7891V15.543C150.156 15.0273 150.105 14.543 150.004 14.0898C149.91 13.6289 149.758 13.2227 149.547 12.8711C149.344 12.5117 149.074 12.2305 148.738 12.0273C148.402 11.8242 147.996 11.7227 147.52 11.7227C147.043 11.7227 146.637 11.8242 146.301 12.0273C145.973 12.2305 145.703 12.5117 145.492 12.8711C145.289 13.2227 145.141 13.6289 145.047 14.0898C144.953 14.543 144.906 15.0273 144.906 15.543ZM158.992 12.0859V22H155.617V9.32031H158.793L158.992 12.0859ZM162.812 9.23828L162.754 12.3672C162.59 12.3438 162.391 12.3242 162.156 12.3086C161.93 12.2852 161.723 12.2734 161.535 12.2734C161.059 12.2734 160.645 12.3359 160.293 12.4609C159.949 12.5781 159.66 12.7539 159.426 12.9883C159.199 13.2227 159.027 13.5078 158.91 13.8438C158.801 14.1797 158.738 14.5625 158.723 14.9922L158.043 14.7812C158.043 13.9609 158.125 13.207 158.289 12.5195C158.453 11.8242 158.691 11.2188 159.004 10.7031C159.324 10.1875 159.715 9.78906 160.176 9.50781C160.637 9.22656 161.164 9.08594 161.758 9.08594C161.945 9.08594 162.137 9.10156 162.332 9.13281C162.527 9.15625 162.688 9.19141 162.812 9.23828ZM170.008 22.2344C169.023 22.2344 168.141 22.0781 167.359 21.7656C166.578 21.4453 165.914 21.0039 165.367 20.4414C164.828 19.8789 164.414 19.2266 164.125 18.4844C163.836 17.7344 163.691 16.9375 163.691 16.0938V15.625C163.691 14.6641 163.828 13.7852 164.102 12.9883C164.375 12.1914 164.766 11.5 165.273 10.9141C165.789 10.3281 166.414 9.87891 167.148 9.56641C167.883 9.24609 168.711 9.08594 169.633 9.08594C170.531 9.08594 171.328 9.23438 172.023 9.53125C172.719 9.82812 173.301 10.25 173.77 10.7969C174.246 11.3438 174.605 12 174.848 12.7656C175.09 13.5234 175.211 14.3672 175.211 15.2969V16.7031H165.133V14.4531H171.895V14.1953C171.895 13.7266 171.809 13.3086 171.637 12.9414C171.473 12.5664 171.223 12.2695 170.887 12.0508C170.551 11.832 170.121 11.7227 169.598 11.7227C169.152 11.7227 168.77 11.8203 168.449 12.0156C168.129 12.2109 167.867 12.4844 167.664 12.8359C167.469 13.1875 167.32 13.6016 167.219 14.0781C167.125 14.5469 167.078 15.0625 167.078 15.625V16.0938C167.078 16.6016 167.148 17.0703 167.289 17.5C167.438 17.9297 167.645 18.3008 167.91 18.6133C168.184 18.9258 168.512 19.168 168.895 19.3398C169.285 19.5117 169.727 19.5977 170.219 19.5977C170.828 19.5977 171.395 19.4805 171.918 19.2461C172.449 19.0039 172.906 18.6406 173.289 18.1562L174.93 19.9375C174.664 20.3203 174.301 20.6875 173.84 21.0391C173.387 21.3906 172.84 21.6797 172.199 21.9062C171.559 22.125 170.828 22.2344 170.008 22.2344ZM180.508 12.0859V22H177.133V9.32031H180.309L180.508 12.0859ZM184.328 9.23828L184.27 12.3672C184.105 12.3438 183.906 12.3242 183.672 12.3086C183.445 12.2852 183.238 12.2734 183.051 12.2734C182.574 12.2734 182.16 12.3359 181.809 12.4609C181.465 12.5781 181.176 12.7539 180.941 12.9883C180.715 13.2227 180.543 13.5078 180.426 13.8438C180.316 14.1797 180.254 14.5625 180.238 14.9922L179.559 14.7812C179.559 13.9609 179.641 13.207 179.805 12.5195C179.969 11.8242 180.207 11.2188 180.52 10.7031C180.84 10.1875 181.23 9.78906 181.691 9.50781C182.152 9.22656 182.68 9.08594 183.273 9.08594C183.461 9.08594 183.652 9.10156 183.848 9.13281C184.043 9.15625 184.203 9.19141 184.328 9.23828Z" fill="white"/>
  <path d="M15.5391 0L28.5294 7.5V22.5L15.5391 30L2.54868 22.5V7.5L15.5391 0Z" fill="#065E7C"/>
</svg>
