<svg width="198" height="40" viewBox="0 0 198 40" fill="none" xmlns="http://www.w3.org/2000/svg">
  <g clipPath="url(#clip0_1103_435)">
  <path d="M46.1523 22.5H42.7539V8.69531C42.7539 7.73438 42.9414 6.92578 43.3164 6.26953C43.6992 5.60547 44.2344 5.10547 44.9219 4.76953C45.6172 4.42578 46.4414 4.25391 47.3945 4.25391C47.707 4.25391 48.0078 4.27734 48.2969 4.32422C48.5859 4.36328 48.8672 4.41406 49.1406 4.47656L49.1055 7.01953C48.957 6.98047 48.8008 6.95312 48.6367 6.9375C48.4727 6.92188 48.2812 6.91406 48.0625 6.91406C47.6562 6.91406 47.3086 6.98438 47.0195 7.125C46.7383 7.25781 46.5234 7.45703 46.375 7.72266C46.2266 7.98828 46.1523 8.3125 46.1523 8.69531V22.5ZM48.6836 9.82031V12.2109H40.8672V9.82031H48.6836ZM49.9141 16.2891V16.043C49.9141 15.1133 50.0469 14.2578 50.3125 13.4766C50.5781 12.6875 50.9648 12.0039 51.4727 11.4258C51.9805 10.8477 52.6055 10.3984 53.3477 10.0781C54.0898 9.75 54.9414 9.58594 55.9023 9.58594C56.8633 9.58594 57.7188 9.75 58.4688 10.0781C59.2188 10.3984 59.8477 10.8477 60.3555 11.4258C60.8711 12.0039 61.2617 12.6875 61.5273 13.4766C61.793 14.2578 61.9258 15.1133 61.9258 16.043V16.2891C61.9258 17.2109 61.793 18.0664 61.5273 18.8555C61.2617 19.6367 60.8711 20.3203 60.3555 20.9062C59.8477 21.4844 59.2227 21.9336 58.4805 22.2539C57.7383 22.5742 56.8867 22.7344 55.9258 22.7344C54.9648 22.7344 54.1094 22.5742 53.3594 22.2539C52.6172 21.9336 51.9883 21.4844 51.4727 20.9062C50.9648 20.3203 50.5781 19.6367 50.3125 18.8555C50.0469 18.0664 49.9141 17.2109 49.9141 16.2891ZM53.2891 16.043V16.2891C53.2891 16.8203 53.3359 17.3164 53.4297 17.7773C53.5234 18.2383 53.6719 18.6445 53.875 18.9961C54.0859 19.3398 54.3594 19.6094 54.6953 19.8047C55.0312 20 55.4414 20.0977 55.9258 20.0977C56.3945 20.0977 56.7969 20 57.1328 19.8047C57.4688 19.6094 57.7383 19.3398 57.9414 18.9961C58.1445 18.6445 58.293 18.2383 58.3867 17.7773C58.4883 17.3164 58.5391 16.8203 58.5391 16.2891V16.043C58.5391 15.5273 58.4883 15.043 58.3867 14.5898C58.293 14.1289 58.1406 13.7227 57.9297 13.3711C57.7266 13.0117 57.457 12.7305 57.1211 12.5273C56.7852 12.3242 56.3789 12.2227 55.9023 12.2227C55.4258 12.2227 55.0195 12.3242 54.6836 12.5273C54.3555 12.7305 54.0859 13.0117 53.875 13.3711C53.6719 13.7227 53.5234 14.1289 53.4297 14.5898C53.3359 15.043 53.2891 15.5273 53.2891 16.043ZM63.4609 16.2891V16.043C63.4609 15.1133 63.5938 14.2578 63.8594 13.4766C64.125 12.6875 64.5117 12.0039 65.0195 11.4258C65.5273 10.8477 66.1523 10.3984 66.8945 10.0781C67.6367 9.75 68.4883 9.58594 69.4492 9.58594C70.4102 9.58594 71.2656 9.75 72.0156 10.0781C72.7656 10.3984 73.3945 10.8477 73.9023 11.4258C74.418 12.0039 74.8086 12.6875 75.0742 13.4766C75.3398 14.2578 75.4727 15.1133 75.4727 16.043V16.2891C75.4727 17.2109 75.3398 18.0664 75.0742 18.8555C74.8086 19.6367 74.418 20.3203 73.9023 20.9062C73.3945 21.4844 72.7695 21.9336 72.0273 22.2539C71.2852 22.5742 70.4336 22.7344 69.4727 22.7344C68.5117 22.7344 67.6562 22.5742 66.9062 22.2539C66.1641 21.9336 65.5352 21.4844 65.0195 20.9062C64.5117 20.3203 64.125 19.6367 63.8594 18.8555C63.5938 18.0664 63.4609 17.2109 63.4609 16.2891ZM66.8359 16.043V16.2891C66.8359 16.8203 66.8828 17.3164 66.9766 17.7773C67.0703 18.2383 67.2188 18.6445 67.4219 18.9961C67.6328 19.3398 67.9062 19.6094 68.2422 19.8047C68.5781 20 68.9883 20.0977 69.4727 20.0977C69.9414 20.0977 70.3438 20 70.6797 19.8047C71.0156 19.6094 71.2852 19.3398 71.4883 18.9961C71.6914 18.6445 71.8398 18.2383 71.9336 17.7773C72.0352 17.3164 72.0859 16.8203 72.0859 16.2891V16.043C72.0859 15.5273 72.0352 15.043 71.9336 14.5898C71.8398 14.1289 71.6875 13.7227 71.4766 13.3711C71.2734 13.0117 71.0039 12.7305 70.668 12.5273C70.332 12.3242 69.9258 12.2227 69.4492 12.2227C68.9727 12.2227 68.5664 12.3242 68.2305 12.5273C67.9023 12.7305 67.6328 13.0117 67.4219 13.3711C67.2188 13.7227 67.0703 14.1289 66.9766 14.5898C66.8828 15.043 66.8359 15.5273 66.8359 16.043ZM85.0352 19.7344V4.5H88.4336V22.5H85.375L85.0352 19.7344ZM77.0195 16.3125V16.0664C77.0195 15.0977 77.1289 14.2188 77.3477 13.4297C77.5664 12.6328 77.8867 11.9492 78.3086 11.3789C78.7305 10.8086 79.25 10.3672 79.8672 10.0547C80.4844 9.74219 81.1875 9.58594 81.9766 9.58594C82.7188 9.58594 83.3672 9.74219 83.9219 10.0547C84.4844 10.3672 84.9609 10.8125 85.3516 11.3906C85.75 11.9609 86.0703 12.6367 86.3125 13.418C86.5547 14.1914 86.7305 15.0391 86.8398 15.9609V16.5C86.7305 17.3828 86.5547 18.2031 86.3125 18.9609C86.0703 19.7188 85.75 20.3828 85.3516 20.9531C84.9609 21.5156 84.4844 21.9531 83.9219 22.2656C83.3594 22.5781 82.7031 22.7344 81.9531 22.7344C81.1641 22.7344 80.4609 22.5742 79.8438 22.2539C79.2344 21.9336 78.7188 21.4844 78.2969 20.9062C77.8828 20.3281 77.5664 19.6484 77.3477 18.8672C77.1289 18.0859 77.0195 17.2344 77.0195 16.3125ZM80.3945 16.0664V16.3125C80.3945 16.8359 80.4336 17.3242 80.5117 17.7773C80.5977 18.2305 80.7344 18.6328 80.9219 18.9844C81.1172 19.3281 81.3672 19.5977 81.6719 19.793C81.9844 19.9805 82.3633 20.0742 82.8086 20.0742C83.3867 20.0742 83.8633 19.9453 84.2383 19.6875C84.6133 19.4219 84.8984 19.0586 85.0938 18.5977C85.2969 18.1367 85.4141 17.6055 85.4453 17.0039V15.4688C85.4219 14.9766 85.3516 14.5352 85.2344 14.1445C85.125 13.7461 84.9609 13.4062 84.7422 13.125C84.5312 12.8438 84.2656 12.625 83.9453 12.4688C83.6328 12.3125 83.2617 12.2344 82.832 12.2344C82.3945 12.2344 82.0195 12.3359 81.707 12.5391C81.3945 12.7344 81.1406 13.0039 80.9453 13.3477C80.7578 13.6914 80.6172 14.0977 80.5234 14.5664C80.4375 15.0273 80.3945 15.5273 80.3945 16.0664ZM102.883 22.7344C101.898 22.7344 101.016 22.5781 100.234 22.2656C99.4531 21.9453 98.7891 21.5039 98.2422 20.9414C97.7031 20.3789 97.2891 19.7266 97 18.9844C96.7109 18.2344 96.5664 17.4375 96.5664 16.5938V16.125C96.5664 15.1641 96.7031 14.2852 96.9766 13.4883C97.25 12.6914 97.6406 12 98.1484 11.4141C98.6641 10.8281 99.2891 10.3789 100.023 10.0664C100.758 9.74609 101.586 9.58594 102.508 9.58594C103.406 9.58594 104.203 9.73438 104.898 10.0312C105.594 10.3281 106.176 10.75 106.645 11.2969C107.121 11.8438 107.48 12.5 107.723 13.2656C107.965 14.0234 108.086 14.8672 108.086 15.7969V17.2031H98.0078V14.9531H104.77V14.6953C104.77 14.2266 104.684 13.8086 104.512 13.4414C104.348 13.0664 104.098 12.7695 103.762 12.5508C103.426 12.332 102.996 12.2227 102.473 12.2227C102.027 12.2227 101.645 12.3203 101.324 12.5156C101.004 12.7109 100.742 12.9844 100.539 13.3359C100.344 13.6875 100.195 14.1016 100.094 14.5781C100 15.0469 99.9531 15.5625 99.9531 16.125V16.5938C99.9531 17.1016 100.023 17.5703 100.164 18C100.312 18.4297 100.52 18.8008 100.785 19.1133C101.059 19.4258 101.387 19.668 101.77 19.8398C102.16 20.0117 102.602 20.0977 103.094 20.0977C103.703 20.0977 104.27 19.9805 104.793 19.7461C105.324 19.5039 105.781 19.1406 106.164 18.6562L107.805 20.4375C107.539 20.8203 107.176 21.1875 106.715 21.5391C106.262 21.8906 105.715 22.1797 105.074 22.4062C104.434 22.625 103.703 22.7344 102.883 22.7344ZM112.727 9.82031L114.824 13.6758L116.98 9.82031H120.578L116.992 16.0195L120.742 22.5H117.133L114.848 18.4219L112.562 22.5H108.953L112.703 16.0195L109.117 9.82031H112.727ZM125.594 12.2578V27.375H122.219V9.82031H125.348L125.594 12.2578ZM133.621 16.0195V16.2656C133.621 17.1875 133.512 18.043 133.293 18.832C133.082 19.6211 132.77 20.3086 132.355 20.8945C131.941 21.4727 131.426 21.9258 130.809 22.2539C130.199 22.5742 129.496 22.7344 128.699 22.7344C127.926 22.7344 127.254 22.5781 126.684 22.2656C126.113 21.9531 125.633 21.5156 125.242 20.9531C124.859 20.3828 124.551 19.7227 124.316 18.9727C124.082 18.2227 123.902 17.418 123.777 16.5586V15.9141C123.902 14.9922 124.082 14.1484 124.316 13.3828C124.551 12.6094 124.859 11.9414 125.242 11.3789C125.633 10.8086 126.109 10.3672 126.672 10.0547C127.242 9.74219 127.91 9.58594 128.676 9.58594C129.48 9.58594 130.188 9.73828 130.797 10.043C131.414 10.3477 131.93 10.7852 132.344 11.3555C132.766 11.9258 133.082 12.6055 133.293 13.3945C133.512 14.1836 133.621 15.0586 133.621 16.0195ZM130.234 16.2656V16.0195C130.234 15.4805 130.188 14.9844 130.094 14.5312C130.008 14.0703 129.867 13.668 129.672 13.3242C129.484 12.9805 129.234 12.7148 128.922 12.5273C128.617 12.332 128.246 12.2344 127.809 12.2344C127.348 12.2344 126.953 12.3086 126.625 12.457C126.305 12.6055 126.043 12.8203 125.84 13.1016C125.637 13.3828 125.484 13.7188 125.383 14.1094C125.281 14.5 125.219 14.9414 125.195 15.4336V17.0625C125.234 17.6406 125.344 18.1602 125.523 18.6211C125.703 19.0742 125.98 19.4336 126.355 19.6992C126.73 19.9648 127.223 20.0977 127.832 20.0977C128.277 20.0977 128.652 20 128.957 19.8047C129.262 19.6016 129.508 19.3242 129.695 18.9727C129.891 18.6211 130.027 18.2148 130.105 17.7539C130.191 17.293 130.234 16.7969 130.234 16.2656ZM139.281 4.5V22.5H135.895V4.5H139.281ZM141.531 16.2891V16.043C141.531 15.1133 141.664 14.2578 141.93 13.4766C142.195 12.6875 142.582 12.0039 143.09 11.4258C143.598 10.8477 144.223 10.3984 144.965 10.0781C145.707 9.75 146.559 9.58594 147.52 9.58594C148.48 9.58594 149.336 9.75 150.086 10.0781C150.836 10.3984 151.465 10.8477 151.973 11.4258C152.488 12.0039 152.879 12.6875 153.145 13.4766C153.41 14.2578 153.543 15.1133 153.543 16.043V16.2891C153.543 17.2109 153.41 18.0664 153.145 18.8555C152.879 19.6367 152.488 20.3203 151.973 20.9062C151.465 21.4844 150.84 21.9336 150.098 22.2539C149.355 22.5742 148.504 22.7344 147.543 22.7344C146.582 22.7344 145.727 22.5742 144.977 22.2539C144.234 21.9336 143.605 21.4844 143.09 20.9062C142.582 20.3203 142.195 19.6367 141.93 18.8555C141.664 18.0664 141.531 17.2109 141.531 16.2891ZM144.906 16.043V16.2891C144.906 16.8203 144.953 17.3164 145.047 17.7773C145.141 18.2383 145.289 18.6445 145.492 18.9961C145.703 19.3398 145.977 19.6094 146.312 19.8047C146.648 20 147.059 20.0977 147.543 20.0977C148.012 20.0977 148.414 20 148.75 19.8047C149.086 19.6094 149.355 19.3398 149.559 18.9961C149.762 18.6445 149.91 18.2383 150.004 17.7773C150.105 17.3164 150.156 16.8203 150.156 16.2891V16.043C150.156 15.5273 150.105 15.043 150.004 14.5898C149.91 14.1289 149.758 13.7227 149.547 13.3711C149.344 13.0117 149.074 12.7305 148.738 12.5273C148.402 12.3242 147.996 12.2227 147.52 12.2227C147.043 12.2227 146.637 12.3242 146.301 12.5273C145.973 12.7305 145.703 13.0117 145.492 13.3711C145.289 13.7227 145.141 14.1289 145.047 14.5898C144.953 15.043 144.906 15.5273 144.906 16.043ZM158.992 12.5859V22.5H155.617V9.82031H158.793L158.992 12.5859ZM162.812 9.73828L162.754 12.8672C162.59 12.8438 162.391 12.8242 162.156 12.8086C161.93 12.7852 161.723 12.7734 161.535 12.7734C161.059 12.7734 160.645 12.8359 160.293 12.9609C159.949 13.0781 159.66 13.2539 159.426 13.4883C159.199 13.7227 159.027 14.0078 158.91 14.3438C158.801 14.6797 158.738 15.0625 158.723 15.4922L158.043 15.2812C158.043 14.4609 158.125 13.707 158.289 13.0195C158.453 12.3242 158.691 11.7188 159.004 11.2031C159.324 10.6875 159.715 10.2891 160.176 10.0078C160.637 9.72656 161.164 9.58594 161.758 9.58594C161.945 9.58594 162.137 9.60156 162.332 9.63281C162.527 9.65625 162.688 9.69141 162.812 9.73828ZM170.008 22.7344C169.023 22.7344 168.141 22.5781 167.359 22.2656C166.578 21.9453 165.914 21.5039 165.367 20.9414C164.828 20.3789 164.414 19.7266 164.125 18.9844C163.836 18.2344 163.691 17.4375 163.691 16.5938V16.125C163.691 15.1641 163.828 14.2852 164.102 13.4883C164.375 12.6914 164.766 12 165.273 11.4141C165.789 10.8281 166.414 10.3789 167.148 10.0664C167.883 9.74609 168.711 9.58594 169.633 9.58594C170.531 9.58594 171.328 9.73438 172.023 10.0312C172.719 10.3281 173.301 10.75 173.77 11.2969C174.246 11.8438 174.605 12.5 174.848 13.2656C175.09 14.0234 175.211 14.8672 175.211 15.7969V17.2031H165.133V14.9531H171.895V14.6953C171.895 14.2266 171.809 13.8086 171.637 13.4414C171.473 13.0664 171.223 12.7695 170.887 12.5508C170.551 12.332 170.121 12.2227 169.598 12.2227C169.152 12.2227 168.77 12.3203 168.449 12.5156C168.129 12.7109 167.867 12.9844 167.664 13.3359C167.469 13.6875 167.32 14.1016 167.219 14.5781C167.125 15.0469 167.078 15.5625 167.078 16.125V16.5938C167.078 17.1016 167.148 17.5703 167.289 18C167.438 18.4297 167.645 18.8008 167.91 19.1133C168.184 19.4258 168.512 19.668 168.895 19.8398C169.285 20.0117 169.727 20.0977 170.219 20.0977C170.828 20.0977 171.395 19.9805 171.918 19.7461C172.449 19.5039 172.906 19.1406 173.289 18.6562L174.93 20.4375C174.664 20.8203 174.301 21.1875 173.84 21.5391C173.387 21.8906 172.84 22.1797 172.199 22.4062C171.559 22.625 170.828 22.7344 170.008 22.7344ZM180.508 12.5859V22.5H177.133V9.82031H180.309L180.508 12.5859ZM184.328 9.73828L184.27 12.8672C184.105 12.8438 183.906 12.8242 183.672 12.8086C183.445 12.7852 183.238 12.7734 183.051 12.7734C182.574 12.7734 182.16 12.8359 181.809 12.9609C181.465 13.0781 181.176 13.2539 180.941 13.4883C180.715 13.7227 180.543 14.0078 180.426 14.3438C180.316 14.6797 180.254 15.0625 180.238 15.4922L179.559 15.2812C179.559 14.4609 179.641 13.707 179.805 13.0195C179.969 12.3242 180.207 11.7188 180.52 11.2031C180.84 10.6875 181.23 10.2891 181.691 10.0078C182.152 9.72656 182.68 9.58594 183.273 9.58594C183.461 9.58594 183.652 9.60156 183.848 9.63281C184.043 9.65625 184.203 9.69141 184.328 9.73828Z" fill="white"/>
  <path d="M155.104 35.416V32.1523C155.104 31.9023 155.053 31.6855 154.951 31.502C154.854 31.3145 154.705 31.1699 154.506 31.0684C154.307 30.9668 154.061 30.916 153.768 30.916C153.494 30.916 153.254 30.9629 153.047 31.0566C152.844 31.1504 152.684 31.2734 152.566 31.4258C152.453 31.5781 152.396 31.7422 152.396 31.918H151.312C151.312 31.6914 151.371 31.4668 151.488 31.2441C151.605 31.0215 151.773 30.8203 151.992 30.6406C152.215 30.457 152.48 30.3125 152.789 30.207C153.102 30.0977 153.449 30.043 153.832 30.043C154.293 30.043 154.699 30.1211 155.051 30.2773C155.406 30.4336 155.684 30.6699 155.883 30.9863C156.086 31.2988 156.188 31.6914 156.188 32.1641V35.1172C156.188 35.3281 156.205 35.5527 156.24 35.791C156.279 36.0293 156.336 36.2344 156.41 36.4062V36.5H155.279C155.225 36.375 155.182 36.209 155.15 36.002C155.119 35.791 155.104 35.5957 155.104 35.416ZM155.291 32.6562L155.303 33.418H154.207C153.898 33.418 153.623 33.4434 153.381 33.4941C153.139 33.541 152.936 33.6133 152.771 33.7109C152.607 33.8086 152.482 33.9316 152.396 34.0801C152.311 34.2246 152.268 34.3945 152.268 34.5898C152.268 34.7891 152.312 34.9707 152.402 35.1348C152.492 35.2988 152.627 35.4297 152.807 35.5273C152.99 35.6211 153.215 35.668 153.48 35.668C153.812 35.668 154.105 35.5977 154.359 35.457C154.613 35.3164 154.814 35.1445 154.963 34.9414C155.115 34.7383 155.197 34.541 155.209 34.3496L155.672 34.8711C155.645 35.0352 155.57 35.2168 155.449 35.416C155.328 35.6152 155.166 35.8066 154.963 35.9902C154.764 36.1699 154.525 36.3203 154.248 36.4414C153.975 36.5586 153.666 36.6172 153.322 36.6172C152.893 36.6172 152.516 36.5332 152.191 36.3652C151.871 36.1973 151.621 35.9727 151.441 35.6914C151.266 35.4062 151.178 35.0879 151.178 34.7363C151.178 34.3965 151.244 34.0977 151.377 33.8398C151.51 33.5781 151.701 33.3613 151.951 33.1895C152.201 33.0137 152.502 32.8809 152.854 32.791C153.205 32.7012 153.598 32.6562 154.031 32.6562H155.291ZM161.889 35.2695V27.5H162.979V36.5H161.982L161.889 35.2695ZM157.623 33.4004V33.2773C157.623 32.793 157.682 32.3535 157.799 31.959C157.92 31.5605 158.09 31.2188 158.309 30.9336C158.531 30.6484 158.795 30.4297 159.1 30.2773C159.408 30.1211 159.752 30.043 160.131 30.043C160.529 30.043 160.877 30.1133 161.174 30.2539C161.475 30.3906 161.729 30.5918 161.936 30.8574C162.146 31.1191 162.312 31.4355 162.434 31.8066C162.555 32.1777 162.639 32.5977 162.686 33.0664V33.6055C162.643 34.0703 162.559 34.4883 162.434 34.8594C162.312 35.2305 162.146 35.5469 161.936 35.8086C161.729 36.0703 161.475 36.2715 161.174 36.4121C160.873 36.5488 160.521 36.6172 160.119 36.6172C159.748 36.6172 159.408 36.5371 159.1 36.377C158.795 36.2168 158.531 35.9922 158.309 35.7031C158.09 35.4141 157.92 35.0742 157.799 34.6836C157.682 34.2891 157.623 33.8613 157.623 33.4004ZM158.713 33.2773V33.4004C158.713 33.7168 158.744 34.0137 158.807 34.291C158.873 34.5684 158.975 34.8125 159.111 35.0234C159.248 35.2344 159.422 35.4004 159.633 35.5215C159.844 35.6387 160.096 35.6973 160.389 35.6973C160.748 35.6973 161.043 35.6211 161.273 35.4688C161.508 35.3164 161.695 35.1152 161.836 34.8652C161.977 34.6152 162.086 34.3438 162.164 34.0508V32.6387C162.117 32.4238 162.049 32.2168 161.959 32.0176C161.873 31.8145 161.76 31.6348 161.619 31.4785C161.482 31.3184 161.312 31.1914 161.109 31.0977C160.91 31.0039 160.674 30.957 160.4 30.957C160.104 30.957 159.848 31.0195 159.633 31.1445C159.422 31.2656 159.248 31.4336 159.111 31.6484C158.975 31.8594 158.873 32.1055 158.807 32.3867C158.744 32.6641 158.713 32.9609 158.713 33.2773ZM165.744 31.4199V36.5H164.654V30.1602H165.686L165.744 31.4199ZM165.521 33.0898L165.018 33.0723C165.021 32.6387 165.078 32.2383 165.188 31.8711C165.297 31.5 165.459 31.1777 165.674 30.9043C165.889 30.6309 166.156 30.4199 166.477 30.2715C166.797 30.1191 167.168 30.043 167.59 30.043C167.887 30.043 168.16 30.0859 168.41 30.1719C168.66 30.2539 168.877 30.3848 169.061 30.5645C169.244 30.7441 169.387 30.9746 169.488 31.2559C169.59 31.5371 169.641 31.877 169.641 32.2754V36.5H168.557V32.3281C168.557 31.9961 168.5 31.7305 168.387 31.5312C168.277 31.332 168.121 31.1875 167.918 31.0977C167.715 31.0039 167.477 30.957 167.203 30.957C166.883 30.957 166.615 31.0137 166.4 31.127C166.186 31.2402 166.014 31.3965 165.885 31.5957C165.756 31.7949 165.662 32.0234 165.604 32.2812C165.549 32.5352 165.521 32.8047 165.521 33.0898ZM169.629 32.4922L168.902 32.7148C168.906 32.3672 168.963 32.0332 169.072 31.7129C169.186 31.3926 169.348 31.1074 169.559 30.8574C169.773 30.6074 170.037 30.4102 170.35 30.2656C170.662 30.1172 171.02 30.043 171.422 30.043C171.762 30.043 172.062 30.0879 172.324 30.1777C172.59 30.2676 172.812 30.4062 172.992 30.5938C173.176 30.7773 173.314 31.0137 173.408 31.3027C173.502 31.5918 173.549 31.9355 173.549 32.334V36.5H172.459V32.3223C172.459 31.9668 172.402 31.6914 172.289 31.4961C172.18 31.2969 172.023 31.1582 171.82 31.0801C171.621 30.998 171.383 30.957 171.105 30.957C170.867 30.957 170.656 30.998 170.473 31.0801C170.289 31.1621 170.135 31.2754 170.01 31.4199C169.885 31.5605 169.789 31.7227 169.723 31.9062C169.66 32.0898 169.629 32.2852 169.629 32.4922ZM176.367 30.1602V36.5H175.277V30.1602H176.367ZM175.195 28.4785C175.195 28.3027 175.248 28.1543 175.354 28.0332C175.463 27.9121 175.623 27.8516 175.834 27.8516C176.041 27.8516 176.199 27.9121 176.309 28.0332C176.422 28.1543 176.479 28.3027 176.479 28.4785C176.479 28.6465 176.422 28.791 176.309 28.9121C176.199 29.0293 176.041 29.0879 175.834 29.0879C175.623 29.0879 175.463 29.0293 175.354 28.9121C175.248 28.791 175.195 28.6465 175.195 28.4785ZM179.191 31.5137V36.5H178.107V30.1602H179.133L179.191 31.5137ZM178.934 33.0898L178.482 33.0723C178.486 32.6387 178.551 32.2383 178.676 31.8711C178.801 31.5 178.977 31.1777 179.203 30.9043C179.43 30.6309 179.699 30.4199 180.012 30.2715C180.328 30.1191 180.678 30.043 181.061 30.043C181.373 30.043 181.654 30.0859 181.904 30.1719C182.154 30.2539 182.367 30.3867 182.543 30.5703C182.723 30.7539 182.859 30.9922 182.953 31.2852C183.047 31.5742 183.094 31.9277 183.094 32.3457V36.5H182.004V32.334C182.004 32.002 181.955 31.7363 181.857 31.5371C181.76 31.334 181.617 31.1875 181.43 31.0977C181.242 31.0039 181.012 30.957 180.738 30.957C180.469 30.957 180.223 31.0137 180 31.127C179.781 31.2402 179.592 31.3965 179.432 31.5957C179.275 31.7949 179.152 32.0234 179.062 32.2812C178.977 32.5352 178.934 32.8047 178.934 33.0898Z" fill="#82F3FF"/>
  <path d="M15.5391 0.5L28.5294 8V23L15.5391 30.5L2.54868 23V8L15.5391 0.5Z" fill="#065E7C"/>
  </g>
  <defs>
  <clipPath id="clip0_1103_435">
  <rect width="197" height="39" fill="white" transform="translate(0.539062 0.5)"/>
  </clipPath>
  </defs>
</svg>