<svg width="187" height="31" viewBox="0 0 187 31" fill="none" xmlns="http://www.w3.org/2000/svg">
  <path d="M46.1523 22.7444H42.7539V8.9397C42.7539 7.97876 42.9414 7.17017 43.3164 6.51392C43.6992 5.84985 44.2344 5.34985 44.9219 5.01392C45.6172 4.67017 46.4414 4.49829 47.3945 4.49829C47.707 4.49829 48.0078 4.52173 48.2969 4.5686C48.5859 4.60767 48.8672 4.65845 49.1406 4.72095L49.1055 7.26392C48.957 7.22485 48.8008 7.19751 48.6367 7.18188C48.4727 7.16626 48.2812 7.15845 48.0625 7.15845C47.6562 7.15845 47.3086 7.22876 47.0195 7.36938C46.7383 7.5022 46.5234 7.70142 46.375 7.96704C46.2266 8.23267 46.1523 8.55688 46.1523 8.9397V22.7444ZM48.6836 10.0647V12.4553H40.8672V10.0647H48.6836ZM49.9141 16.5334V16.2874C49.9141 15.3577 50.0469 14.5022 50.3125 13.7209C50.5781 12.9319 50.9648 12.2483 51.4727 11.6702C51.9805 11.092 52.6055 10.6428 53.3477 10.3225C54.0898 9.99438 54.9414 9.83032 55.9023 9.83032C56.8633 9.83032 57.7188 9.99438 58.4688 10.3225C59.2188 10.6428 59.8477 11.092 60.3555 11.6702C60.8711 12.2483 61.2617 12.9319 61.5273 13.7209C61.793 14.5022 61.9258 15.3577 61.9258 16.2874V16.5334C61.9258 17.4553 61.793 18.3108 61.5273 19.0999C61.2617 19.8811 60.8711 20.5647 60.3555 21.1506C59.8477 21.7288 59.2227 22.178 58.4805 22.4983C57.7383 22.8186 56.8867 22.9788 55.9258 22.9788C54.9648 22.9788 54.1094 22.8186 53.3594 22.4983C52.6172 22.178 51.9883 21.7288 51.4727 21.1506C50.9648 20.5647 50.5781 19.8811 50.3125 19.0999C50.0469 18.3108 49.9141 17.4553 49.9141 16.5334ZM53.2891 16.2874V16.5334C53.2891 17.0647 53.3359 17.5608 53.4297 18.0217C53.5234 18.4827 53.6719 18.8889 53.875 19.2405C54.0859 19.5842 54.3594 19.8538 54.6953 20.0491C55.0312 20.2444 55.4414 20.342 55.9258 20.342C56.3945 20.342 56.7969 20.2444 57.1328 20.0491C57.4688 19.8538 57.7383 19.5842 57.9414 19.2405C58.1445 18.8889 58.293 18.4827 58.3867 18.0217C58.4883 17.5608 58.5391 17.0647 58.5391 16.5334V16.2874C58.5391 15.7717 58.4883 15.2874 58.3867 14.8342C58.293 14.3733 58.1406 13.967 57.9297 13.6155C57.7266 13.2561 57.457 12.9749 57.1211 12.7717C56.7852 12.5686 56.3789 12.467 55.9023 12.467C55.4258 12.467 55.0195 12.5686 54.6836 12.7717C54.3555 12.9749 54.0859 13.2561 53.875 13.6155C53.6719 13.967 53.5234 14.3733 53.4297 14.8342C53.3359 15.2874 53.2891 15.7717 53.2891 16.2874ZM63.4609 16.5334V16.2874C63.4609 15.3577 63.5938 14.5022 63.8594 13.7209C64.125 12.9319 64.5117 12.2483 65.0195 11.6702C65.5273 11.092 66.1523 10.6428 66.8945 10.3225C67.6367 9.99438 68.4883 9.83032 69.4492 9.83032C70.4102 9.83032 71.2656 9.99438 72.0156 10.3225C72.7656 10.6428 73.3945 11.092 73.9023 11.6702C74.418 12.2483 74.8086 12.9319 75.0742 13.7209C75.3398 14.5022 75.4727 15.3577 75.4727 16.2874V16.5334C75.4727 17.4553 75.3398 18.3108 75.0742 19.0999C74.8086 19.8811 74.418 20.5647 73.9023 21.1506C73.3945 21.7288 72.7695 22.178 72.0273 22.4983C71.2852 22.8186 70.4336 22.9788 69.4727 22.9788C68.5117 22.9788 67.6562 22.8186 66.9062 22.4983C66.1641 22.178 65.5352 21.7288 65.0195 21.1506C64.5117 20.5647 64.125 19.8811 63.8594 19.0999C63.5938 18.3108 63.4609 17.4553 63.4609 16.5334ZM66.8359 16.2874V16.5334C66.8359 17.0647 66.8828 17.5608 66.9766 18.0217C67.0703 18.4827 67.2188 18.8889 67.4219 19.2405C67.6328 19.5842 67.9062 19.8538 68.2422 20.0491C68.5781 20.2444 68.9883 20.342 69.4727 20.342C69.9414 20.342 70.3438 20.2444 70.6797 20.0491C71.0156 19.8538 71.2852 19.5842 71.4883 19.2405C71.6914 18.8889 71.8398 18.4827 71.9336 18.0217C72.0352 17.5608 72.0859 17.0647 72.0859 16.5334V16.2874C72.0859 15.7717 72.0352 15.2874 71.9336 14.8342C71.8398 14.3733 71.6875 13.967 71.4766 13.6155C71.2734 13.2561 71.0039 12.9749 70.668 12.7717C70.332 12.5686 69.9258 12.467 69.4492 12.467C68.9727 12.467 68.5664 12.5686 68.2305 12.7717C67.9023 12.9749 67.6328 13.2561 67.4219 13.6155C67.2188 13.967 67.0703 14.3733 66.9766 14.8342C66.8828 15.2874 66.8359 15.7717 66.8359 16.2874ZM85.0352 19.9788V4.74438H88.4336V22.7444H85.375L85.0352 19.9788ZM77.0195 16.5569V16.3108C77.0195 15.342 77.1289 14.4631 77.3477 13.6741C77.5664 12.8772 77.8867 12.1936 78.3086 11.6233C78.7305 11.053 79.25 10.6116 79.8672 10.2991C80.4844 9.98657 81.1875 9.83032 81.9766 9.83032C82.7188 9.83032 83.3672 9.98657 83.9219 10.2991C84.4844 10.6116 84.9609 11.0569 85.3516 11.635C85.75 12.2053 86.0703 12.8811 86.3125 13.6624C86.5547 14.4358 86.7305 15.2834 86.8398 16.2053V16.7444C86.7305 17.6272 86.5547 18.4475 86.3125 19.2053C86.0703 19.9631 85.75 20.6272 85.3516 21.1975C84.9609 21.76 84.4844 22.1975 83.9219 22.51C83.3594 22.8225 82.7031 22.9788 81.9531 22.9788C81.1641 22.9788 80.4609 22.8186 79.8438 22.4983C79.2344 22.178 78.7188 21.7288 78.2969 21.1506C77.8828 20.5725 77.5664 19.8928 77.3477 19.1116C77.1289 18.3303 77.0195 17.4788 77.0195 16.5569ZM80.3945 16.3108V16.5569C80.3945 17.0803 80.4336 17.5686 80.5117 18.0217C80.5977 18.4749 80.7344 18.8772 80.9219 19.2288C81.1172 19.5725 81.3672 19.842 81.6719 20.0374C81.9844 20.2249 82.3633 20.3186 82.8086 20.3186C83.3867 20.3186 83.8633 20.1897 84.2383 19.9319C84.6133 19.6663 84.8984 19.303 85.0938 18.842C85.2969 18.3811 85.4141 17.8499 85.4453 17.2483V15.7131C85.4219 15.2209 85.3516 14.7795 85.2344 14.3889C85.125 13.9905 84.9609 13.6506 84.7422 13.3694C84.5312 13.0881 84.2656 12.8694 83.9453 12.7131C83.6328 12.5569 83.2617 12.4788 82.832 12.4788C82.3945 12.4788 82.0195 12.5803 81.707 12.7834C81.3945 12.9788 81.1406 13.2483 80.9453 13.592C80.7578 13.9358 80.6172 14.342 80.5234 14.8108C80.4375 15.2717 80.3945 15.7717 80.3945 16.3108ZM102.883 22.9788C101.898 22.9788 101.016 22.8225 100.234 22.51C99.4531 22.1897 98.7891 21.7483 98.2422 21.1858C97.7031 20.6233 97.2891 19.9709 97 19.2288C96.7109 18.4788 96.5664 17.6819 96.5664 16.8381V16.3694C96.5664 15.4084 96.7031 14.5295 96.9766 13.7327C97.25 12.9358 97.6406 12.2444 98.1484 11.6584C98.6641 11.0725 99.2891 10.6233 100.023 10.3108C100.758 9.99048 101.586 9.83032 102.508 9.83032C103.406 9.83032 104.203 9.97876 104.898 10.2756C105.594 10.5725 106.176 10.9944 106.645 11.5413C107.121 12.0881 107.48 12.7444 107.723 13.51C107.965 14.2678 108.086 15.1116 108.086 16.0413V17.4475H98.0078V15.1975H104.77V14.9397C104.77 14.4709 104.684 14.053 104.512 13.6858C104.348 13.3108 104.098 13.0139 103.762 12.7952C103.426 12.5764 102.996 12.467 102.473 12.467C102.027 12.467 101.645 12.5647 101.324 12.76C101.004 12.9553 100.742 13.2288 100.539 13.5803C100.344 13.9319 100.195 14.3459 100.094 14.8225C100 15.2913 99.9531 15.8069 99.9531 16.3694V16.8381C99.9531 17.3459 100.023 17.8147 100.164 18.2444C100.312 18.6741 100.52 19.0452 100.785 19.3577C101.059 19.6702 101.387 19.9124 101.77 20.0842C102.16 20.2561 102.602 20.342 103.094 20.342C103.703 20.342 104.27 20.2249 104.793 19.9905C105.324 19.7483 105.781 19.385 106.164 18.9006L107.805 20.6819C107.539 21.0647 107.176 21.4319 106.715 21.7834C106.262 22.135 105.715 22.4241 105.074 22.6506C104.434 22.8694 103.703 22.9788 102.883 22.9788ZM112.727 10.0647L114.824 13.9202L116.98 10.0647H120.578L116.992 16.2639L120.742 22.7444H117.133L114.848 18.6663L112.562 22.7444H108.953L112.703 16.2639L109.117 10.0647H112.727ZM125.594 12.5022V27.6194H122.219V10.0647H125.348L125.594 12.5022ZM133.621 16.2639V16.51C133.621 17.4319 133.512 18.2874 133.293 19.0764C133.082 19.8655 132.77 20.553 132.355 21.1389C131.941 21.717 131.426 22.1702 130.809 22.4983C130.199 22.8186 129.496 22.9788 128.699 22.9788C127.926 22.9788 127.254 22.8225 126.684 22.51C126.113 22.1975 125.633 21.76 125.242 21.1975C124.859 20.6272 124.551 19.967 124.316 19.217C124.082 18.467 123.902 17.6624 123.777 16.803V16.1584C123.902 15.2366 124.082 14.3928 124.316 13.6272C124.551 12.8538 124.859 12.1858 125.242 11.6233C125.633 11.053 126.109 10.6116 126.672 10.2991C127.242 9.98657 127.91 9.83032 128.676 9.83032C129.48 9.83032 130.188 9.98267 130.797 10.2874C131.414 10.592 131.93 11.0295 132.344 11.5999C132.766 12.1702 133.082 12.8499 133.293 13.6389C133.512 14.428 133.621 15.303 133.621 16.2639ZM130.234 16.51V16.2639C130.234 15.7249 130.188 15.2288 130.094 14.7756C130.008 14.3147 129.867 13.9124 129.672 13.5686C129.484 13.2249 129.234 12.9592 128.922 12.7717C128.617 12.5764 128.246 12.4788 127.809 12.4788C127.348 12.4788 126.953 12.553 126.625 12.7014C126.305 12.8499 126.043 13.0647 125.84 13.3459C125.637 13.6272 125.484 13.9631 125.383 14.3538C125.281 14.7444 125.219 15.1858 125.195 15.678V17.3069C125.234 17.885 125.344 18.4045 125.523 18.8655C125.703 19.3186 125.98 19.678 126.355 19.9436C126.73 20.2092 127.223 20.342 127.832 20.342C128.277 20.342 128.652 20.2444 128.957 20.0491C129.262 19.8459 129.508 19.5686 129.695 19.217C129.891 18.8655 130.027 18.4592 130.105 17.9983C130.191 17.5374 130.234 17.0413 130.234 16.51ZM139.281 4.74438V22.7444H135.895V4.74438H139.281ZM141.531 16.5334V16.2874C141.531 15.3577 141.664 14.5022 141.93 13.7209C142.195 12.9319 142.582 12.2483 143.09 11.6702C143.598 11.092 144.223 10.6428 144.965 10.3225C145.707 9.99438 146.559 9.83032 147.52 9.83032C148.48 9.83032 149.336 9.99438 150.086 10.3225C150.836 10.6428 151.465 11.092 151.973 11.6702C152.488 12.2483 152.879 12.9319 153.145 13.7209C153.41 14.5022 153.543 15.3577 153.543 16.2874V16.5334C153.543 17.4553 153.41 18.3108 153.145 19.0999C152.879 19.8811 152.488 20.5647 151.973 21.1506C151.465 21.7288 150.84 22.178 150.098 22.4983C149.355 22.8186 148.504 22.9788 147.543 22.9788C146.582 22.9788 145.727 22.8186 144.977 22.4983C144.234 22.178 143.605 21.7288 143.09 21.1506C142.582 20.5647 142.195 19.8811 141.93 19.0999C141.664 18.3108 141.531 17.4553 141.531 16.5334ZM144.906 16.2874V16.5334C144.906 17.0647 144.953 17.5608 145.047 18.0217C145.141 18.4827 145.289 18.8889 145.492 19.2405C145.703 19.5842 145.977 19.8538 146.312 20.0491C146.648 20.2444 147.059 20.342 147.543 20.342C148.012 20.342 148.414 20.2444 148.75 20.0491C149.086 19.8538 149.355 19.5842 149.559 19.2405C149.762 18.8889 149.91 18.4827 150.004 18.0217C150.105 17.5608 150.156 17.0647 150.156 16.5334V16.2874C150.156 15.7717 150.105 15.2874 150.004 14.8342C149.91 14.3733 149.758 13.967 149.547 13.6155C149.344 13.2561 149.074 12.9749 148.738 12.7717C148.402 12.5686 147.996 12.467 147.52 12.467C147.043 12.467 146.637 12.5686 146.301 12.7717C145.973 12.9749 145.703 13.2561 145.492 13.6155C145.289 13.967 145.141 14.3733 145.047 14.8342C144.953 15.2874 144.906 15.7717 144.906 16.2874ZM158.992 12.8303V22.7444H155.617V10.0647H158.793L158.992 12.8303ZM162.812 9.98267L162.754 13.1116C162.59 13.0881 162.391 13.0686 162.156 13.053C161.93 13.0295 161.723 13.0178 161.535 13.0178C161.059 13.0178 160.645 13.0803 160.293 13.2053C159.949 13.3225 159.66 13.4983 159.426 13.7327C159.199 13.967 159.027 14.2522 158.91 14.5881C158.801 14.9241 158.738 15.3069 158.723 15.7366L158.043 15.5256C158.043 14.7053 158.125 13.9514 158.289 13.2639C158.453 12.5686 158.691 11.9631 159.004 11.4475C159.324 10.9319 159.715 10.5334 160.176 10.2522C160.637 9.97095 161.164 9.83032 161.758 9.83032C161.945 9.83032 162.137 9.84595 162.332 9.8772C162.527 9.90063 162.688 9.93579 162.812 9.98267ZM170.008 22.9788C169.023 22.9788 168.141 22.8225 167.359 22.51C166.578 22.1897 165.914 21.7483 165.367 21.1858C164.828 20.6233 164.414 19.9709 164.125 19.2288C163.836 18.4788 163.691 17.6819 163.691 16.8381V16.3694C163.691 15.4084 163.828 14.5295 164.102 13.7327C164.375 12.9358 164.766 12.2444 165.273 11.6584C165.789 11.0725 166.414 10.6233 167.148 10.3108C167.883 9.99048 168.711 9.83032 169.633 9.83032C170.531 9.83032 171.328 9.97876 172.023 10.2756C172.719 10.5725 173.301 10.9944 173.77 11.5413C174.246 12.0881 174.605 12.7444 174.848 13.51C175.09 14.2678 175.211 15.1116 175.211 16.0413V17.4475H165.133V15.1975H171.895V14.9397C171.895 14.4709 171.809 14.053 171.637 13.6858C171.473 13.3108 171.223 13.0139 170.887 12.7952C170.551 12.5764 170.121 12.467 169.598 12.467C169.152 12.467 168.77 12.5647 168.449 12.76C168.129 12.9553 167.867 13.2288 167.664 13.5803C167.469 13.9319 167.32 14.3459 167.219 14.8225C167.125 15.2913 167.078 15.8069 167.078 16.3694V16.8381C167.078 17.3459 167.148 17.8147 167.289 18.2444C167.438 18.6741 167.645 19.0452 167.91 19.3577C168.184 19.6702 168.512 19.9124 168.895 20.0842C169.285 20.2561 169.727 20.342 170.219 20.342C170.828 20.342 171.395 20.2249 171.918 19.9905C172.449 19.7483 172.906 19.385 173.289 18.9006L174.93 20.6819C174.664 21.0647 174.301 21.4319 173.84 21.7834C173.387 22.135 172.84 22.4241 172.199 22.6506C171.559 22.8694 170.828 22.9788 170.008 22.9788ZM180.508 12.8303V22.7444H177.133V10.0647H180.309L180.508 12.8303ZM184.328 9.98267L184.27 13.1116C184.105 13.0881 183.906 13.0686 183.672 13.053C183.445 13.0295 183.238 13.0178 183.051 13.0178C182.574 13.0178 182.16 13.0803 181.809 13.2053C181.465 13.3225 181.176 13.4983 180.941 13.7327C180.715 13.967 180.543 14.2522 180.426 14.5881C180.316 14.9241 180.254 15.3069 180.238 15.7366L179.559 15.5256C179.559 14.7053 179.641 13.9514 179.805 13.2639C179.969 12.5686 180.207 11.9631 180.52 11.4475C180.84 10.9319 181.23 10.5334 181.691 10.2522C182.152 9.97095 182.68 9.83032 183.273 9.83032C183.461 9.83032 183.652 9.84595 183.848 9.8772C184.043 9.90063 184.203 9.93579 184.328 9.98267Z" fill="#4D585E"/>
  <path d="M15.5391 0.744385L28.5294 8.24438V23.2444L15.5391 30.7444L2.54868 23.2444V8.24438L15.5391 0.744385Z" fill="#4D585E"/>
</svg>
